<?xml version="1.0" encoding="UTF-8" standalone="no"?>
<svg
   xmlns:dc="http://purl.org/dc/elements/1.1/"
   xmlns:cc="http://creativecommons.org/ns#"
   xmlns:rdf="http://www.w3.org/1999/02/22-rdf-syntax-ns#"
   xmlns:svg="http://www.w3.org/2000/svg"
   xmlns="http://www.w3.org/2000/svg"
   xmlns:sodipodi="http://sodipodi.sourceforge.net/DTD/sodipodi-0.dtd"
   xmlns:inkscape="http://www.inkscape.org/namespaces/inkscape"
   width="256"
   height="512"
   version="1.1"
   id="svg1396"
   sodipodi:docname="Person1.svg"
   inkscape:version="0.92.4 (5da689c313, 2019-01-14)">
  <metadata
     id="metadata1402">
    <rdf:RDF>
      <cc:Work
         rdf:about="">
        <dc:format>image/svg+xml</dc:format>
        <dc:type
           rdf:resource="http://purl.org/dc/dcmitype/StillImage" />
        <dc:title></dc:title>
      </cc:Work>
    </rdf:RDF>
  </metadata>
  <defs
     id="defs1400" />
  <sodipodi:namedview
     pagecolor="#ffffff"
     bordercolor="#666666"
     borderopacity="1"
     objecttolerance="10"
     gridtolerance="10"
     guidetolerance="10"
     inkscape:pageopacity="0"
     inkscape:pageshadow="2"
     inkscape:window-width="1280"
     inkscape:window-height="1001"
     id="namedview1398"
     showgrid="false"
     inkscape:zoom="1.5957031"
     inkscape:cx="256"
     inkscape:cy="256"
     inkscape:window-x="1912"
     inkscape:window-y="-8"
     inkscape:window-maximized="1"
     inkscape:current-layer="g1394" />
  <g
     id="g1388">
    <title
       id="title1385">background</title>
    <rect
       id="canvas_background"
       height="402"
       width="582"
       y="-1"
       x="-1"
       style="fill:none" />
  </g>
  <g
     id="g1394">
    <title
       id="title1390">Layer 1</title>
    <path
       id="svg_1"
       d="m 126.27663,88.940776 c 22.75161,0.11077 41.19588,-18.387904 41.19588,-41.317392 0,-22.818718 -18.44427,-41.3173866 -41.19588,-41.3173866 -22.75162,0 -41.195888,18.4986686 -41.195888,41.3173866 0,22.818718 18.444268,41.317392 41.195888,41.317392 z"
       style="fill:none;fill-opacity:1;stroke-width:4.53543307;stroke-miterlimit:4;stroke-dasharray:none;stroke:#ff7600;stroke-opacity:1"
       inkscape:connector-curvature="0" />
    <path
       id="svg_3"
       d="M 167.58296,98.245491 H 126.27663 84.970298 c -31.14541,0 -51.467238,27.471079 -51.467238,53.612909 v 125.83526 c 0,24.36951 34.237862,24.36951 34.237862,0 V 161.38467 h 6.626683 v 316.36047 c 0,33.67423 46.386795,32.56652 47.491235,0 v -182.3282 h 7.73113 1.10445 v 182.43897 c 1.87756,34.56039 47.49123,31.23728 47.49123,-0.11077 V 161.38467 h 5.52223 v 116.30899 c 0,24.36951 35.34231,24.36951 35.34231,0 V 151.8584 c 0,-26.03106 -20.43227,-53.612909 -51.46723,-53.612909 z"
       style="fill:none;fill-opacity:1;stroke-width:4.53543307;stroke-miterlimit:4;stroke-dasharray:none;stroke:#ff7600;stroke-opacity:1"
       inkscape:connector-curvature="0" />
  </g>
</svg>
